<svg
   xmlns="http://www.w3.org/2000/svg"
   width="220"
   height="190">
   
  <path
     d="m  190, 100 0.8,0.69 2.77,3.2 2.74,4.78 1.44,4.41 2.59,0.66 3,2.73 3.27,2.07 3.81,2.1 0.91,-0.25 0.39,-0.42 0.22,1.64 -0.5,1.18 -1.61,1.9 -4.09,4.34 -3.44,2.82 -0.74,0.97 -0.46,0.84 -0.52,1.01 -0.38,0.79 -0.56,0.97 -0.8,1.2 -1.53,1.11 -1.8,-0.11 -2.4,-0.65 -1.12,-0.23 -1.13,0.02 -1.08,0.51 -5.51,5.31 -0.84,0.93 -0.49,0.76 -0.69,1.4 -0.74,1.99 -0.29,0.84 0.13,2.32 -1.3,1.09 -1.01,0.48 -0.9,0 -3.07,-1.49 -0.48,-1.4 -1.68,0.13 -3.4,3.61 -0.76,1.46 -1.22,-0.07 -3.67,-2.2 -1.54,-1.76 -1.23,-1.48 -2.05,0.29 -1.22,1.24 -1.02,0.3 -1.26,0.05 -1.1,-0.05 -1.14,-0.31 -0.51,-1.04 -1.02,-1.24 -0.93,-0.55 -1.5,0 -1.28,1.33 -0.38,0.89 -0.66,1.18 -4.61,0.38 -1.48,-0.68 -0.76,-0.56 -2.8,-2.12 -2.62,0.02 -4.06,0.11 -3.76,-0.43 -1.81,-2.72 -2.8,-1.76 -0.93,-0.48 -2.23,0.04 -3.41,-0.2 -3.51,-0.85 -1.48,-0.52 -2.75,-1.49 -1.98,-1.97 -1.43,-1.5 -3.07,-0.85 -3.57,-2.03 -0.79,-1.09 -1.86,-1.44 -4.36,-1.33 -0.67,0.6 0.15,0.83 -0.79,0.73 -4.88,-0.91 -3.24,-1.94 -0.9,-3.22 0.9,-0.73 0.63,-0.67 -1.56,-4.51 -0.66,-1.05 -0.81,-0.61 -4.43,-0.63 -1.25,-0.29 -4.34,-1.82 -1.04,-4.75 0.55,-1.11 0.11,-0.82 -0.52,-1.08 -0.65,-0.63 -3.91,-1.81 -1.15,0.75 -1.25,0.71 -1.16,-0.26 -1.27,-2.62 -0.15,-1.26 0.38,-1.42 -1.63,-4.4 -1.17,-0.9 -1.65,-0.4 -1.17,0.36 -0.81,0.17 -2.21,0.15 -3.44,-0.92 -0.94,-0.95 -0.54,-1.32 -3.81,-2.14 -1.75,0.64 -2.83,0.42 -3.76,-1.36 -2.77,-3.05 -0.47,-0.84 0.14,-1.45 -0.99,-1.25 -4.85,-0.35 -0.58,0.23 -1.86,-2.24 -1.08,-0.58 -2.45,-0.86 -2.41,-1.57 -0.75,-4.24 0.24,-1.28 1.39,-1.36 1.41,-2.55 1.97,-4.16 -0.02,-1.76 0.54,-0.3 4.31,-0.34 1.65,-0.12 1.35,0 1.33,-0.95 7.85,-10.15 4.3,-5.05 3.46,-4.63 0.77,-2.36 6.57,-7.74 1.82,-1.56 1.71,-3.19 0.42,-2.29 0.35,-1.38 0.53,-0.81 1.33,-1.24 1.48,0.39 0.82,0.33 1.21,-0.31 4.37,-3.57 1.86,-2.32 -0.24,-1.31 -0.5,-0.89 -0.79,-1.2 -0.1,-1.54 0.53,-1.17 3.11,-3.89 0.25,-0.31 3.71,0.92 1.66,0.48 0.87,0.36 0.86,0.46 4.06,2.83 0.85,0.62 0.87,0.84 0.5,0.67 0.49,1.15 0.11,0.87 -0.09,0.97 -0.3,1.08 -0.52,1.1 -0.95,1.12 -0.58,0.58 -1.25,1.78 -0.34,1.14 0.62,8.03 0.2,1.04 0.85,2.44 0.7,1.59 0.31,1.07 0.4,2.8 -0.04,1.34 -0.02,1.69 0.06,0.84 0.27,1.17 1.42,2.54 1.35,1.68 1.25,1.46 1.24,0.84 1.91,0.78 1.76,0.37 1.28,0.25 0.99,0.12 1.06,0.09 1.3,0.21 2.52,0.62 2.63,2.59 1.01,1.61 5.07,3.66 1.31,0.24 2.04,-0.24 1.1,-0.19 1.91,-0.73 1.44,-0.46 3.09,-0.9 1.33,-0.19 1.1,0.08 1.36,0.48 -0.06,0.36 -0.06,1.51 0.37,2.15 0.78,1.26 3.2,3.95 1.75,1.48 1.48,1.68 1.48,3.15 0.26,1.21 0.06,1.34 0.67,1.21 0.79,0.84 0.82,0.79 1.43,1.01 1.08,0.69 1.25,0.85 3.67,3.11 0.77,1.31 3.16,1.33 1.49,0.11 0.98,-0.22 6.35,-4.77 0.51,-0.84 -0.47,-0.9 -0.16,-0.97 1.5,-2.22 1.88,-0.9 3.57,-0.68 2.7,0.68 0.87,1.41 3.44,2.26 0.84,0.24 1.57,-0.3 2.52,2.45 4.99,6.62 1.05,2.77 1.83,3.54 0.88,-0.27 0.92,-0.41 3.87,1.35 1.94,1.51 z"
     title="Caquetá"
     fill='black'
     id="CO-CAQ" />
     <text x="65" y="100" font-size="20" font-family="Victor_mono" fill="white">Caquetá</text>
</svg>
