
<svg
   xmlns="http://www.w3.org/2000/svg"
   width="612.82184"
   height="693.68036">
  <path
     d="m 398.63,230.10916 -0.8,0.65 -0.8,0.37 -1.15,-0.03 -1.37,-0.37 -1.07,-0.1 -0.85,0.31 -4.14,2.36 -0.66,1.37 -0.59,1.12 -1.21,1.07 -0.98,0.32 -2.74,0.09 -2.52,0 -0.55,0.2 -0.85,0 -0.55,-0.65 0.16,-1.62 -0.05,-1.52 -0.67,-0.63 -2.98,0.83 -0.91,0.62 -8.25,-3.49 -0.24,-6.64 0.4,-4.76 0,-0.95 -0.16,-0.98 -1.1,-2.96 -0.55,-1.09 -3.49,-6.04 -1.01,-0.28 -7.78,-0.03 -0.84,0.45 -0.49,0.8 -0.87,1.45 -2.72,0.23 -5.7,-1.74 -0.81,-0.26 -0.93,-0.78 -0.52,-1.45 -1.63,-1.63 -1.48,-0.72 4.49,-0.55 1.16,-0.29 1.77,-0.93 1.08,-1.01 1,-1.57 2.51,-5.23 0.24,-1.41 -0.97,-3.93 -0.43,-1.17 -0.95,-2 -1.55,-2.15 -0.6,-1.47 0,-0.98 0.64,-0.73 0.92,-0.12 1.17,-0.72 0.34,-1.69 0.11,-1.93 -0.03,-1.35 -0.19,-0.92 -0.44,-0.76 -0.93,-0.43 -1.44,0.11 -0.54,0.75 0.15,1.34 0.06,0.9 -0.05,1.14 -1.16,0.96 -1.15,-0.35 -0.47,-1.03 -1.74,-6.83 0.33,-2.99 0.31,-1.05 0.57,-0.99 1.38,-1.34 0.65,-0.83 0.59,-1.51 -0.09,-2.44 -0.36,-2.1 0.15,-3.12 0.98,-6.7 0.19,-0.82 0.51,-1.29 0.41,-0.84 0.25,-0.39 1.34,0.21 5.1,-0.2 2.32,-1.02 0.91,-1.17 5.5,-3.24 1.19,1.71 0.94,2.48 -0.17,0.95 3.17,2.44 4.36,1.62 1.76,6.76 2.99,11.44 9.95,10.4 0.73,0.16 0.15,0.07 0.56,0.61 0.5,1.35 1.62,7.65 0.48,2.6 -0.15,1.13 -0.71,0.58 -1.79,0.01 -2.9,5.25 -0.57,10.92 0.05,6.54 2.19,3.19 0.72,0.55 0.16,0.04 3.05,0.55 2.53,0.15 4.44,2.65 -0.38,1.48 -0.03,1.11 0.8,2.63 0.51,1.05 0.8,1.44 0.86,1.43 1.09,1.7 z"
     title="Norte de Santander"
     id="CO-NSA" />
  
</svg>
